# xmcd
#
# Track frame offsets:
#	182
#	10460
#	25105
#	39162
#	50992
#	63862
#	75170
#	86925
#	99820
#	113907
#	125857
#	138900
#	153130
#	167717
#	179675
#	192302
#	206402
#	218985
#	231670
#	244345
#	256837
#
# Disc length: 3607 seconds
#
# Revision: 0
# Processed by: cddbd v1.5.2PL0 Copyright (c) Steve Scherf et al.
# Submitted via: EasyCDDAExtractor 10.2.0.1
#
DISCID=240e1515
DTITLE=Freddy King - Hideaway
DYEAR=1900
DGENRE=Blues
TTITLE0=See see bay
TTITLE1=You've got to love her with a feeling
TTITLE2=Have you ever loved a woman
TTITLE3=Hideaway
TTITLE4=I love the woman
TTITLE5=Country boy
TTITLE6=That's what you think
TTITLE7=Lonesome whistle blues
TTITLE8=It's too bad things are going so tough
TTITLE9=I'm tore down
TTITLE10=Sen-sa-shun
TTITLE11=Side tracked
TTITLE12=The stumble
TTITLE13=San-ho-zay
TTITLE14=Christmas tears
TTITLE15=In the open
TTITLE16=Takin'care of business
TTITLE17=Driving sideaways
TTITLE18=Someday after awhile (You'll be sorry)
TTITLE19=(The welfare) Turns it's back on you
TTITLE20=Let me down easy
EXTD=
EXTT0=
EXTT1=
EXTT2=
EXTT3=
EXTT4=
EXTT5=
EXTT6=
EXTT7=
EXTT8=
EXTT9=
EXTT10=
EXTT11=
EXTT12=
EXTT13=
EXTT14=
EXTT15=
EXTT16=
EXTT17=
EXTT18=
EXTT19=
EXTT20=
PLAYORDER=
